<?xml version="1.0" encoding="UTF-8" standalone="no"?>
<svg
   xmlns:dc="http://purl.org/dc/elements/1.1/"
   xmlns:cc="http://creativecommons.org/ns#"
   xmlns:rdf="http://www.w3.org/1999/02/22-rdf-syntax-ns#"
   xmlns:svg="http://www.w3.org/2000/svg"
   xmlns="http://www.w3.org/2000/svg"
   xmlns:sodipodi="http://sodipodi.sourceforge.net/DTD/sodipodi-0.dtd"
   xmlns:inkscape="http://www.inkscape.org/namespaces/inkscape"
   id="master-artboard"
   viewBox="0 0 182.23895 194.22009"
   version="1.1"
   x="0px"
   y="0px"
   width="182.23895"
   height="194.22009"
   sodipodi:docname="apple.svg"
   inkscape:version="0.92.4 (5da689c313, 2019-01-14)">
  <metadata
     id="metadata736">
    <rdf:RDF>
      <cc:Work
         rdf:about="">
        <dc:format>image/svg+xml</dc:format>
        <dc:type
           rdf:resource="http://purl.org/dc/dcmitype/StillImage" />
        <dc:title></dc:title>
      </cc:Work>
    </rdf:RDF>
  </metadata>
  <defs
     id="defs734" />
  <sodipodi:namedview
     pagecolor="#ffffff"
     bordercolor="#666666"
     borderopacity="1"
     objecttolerance="10"
     gridtolerance="10"
     guidetolerance="10"
     inkscape:pageopacity="0"
     inkscape:pageshadow="2"
     inkscape:window-width="1920"
     inkscape:window-height="1001"
     id="namedview732"
     showgrid="false"
     inkscape:zoom="0.68113143"
     inkscape:cx="330.63958"
     inkscape:cy="49.40734"
     inkscape:window-x="-9"
     inkscape:window-y="-9"
     inkscape:window-maximized="1"
     inkscape:current-layer="master-artboard" />
  <g
     transform="matrix(0.52350427,0,0,0.52350427,-805.257,-562.29594)"
     id="g729">
    <path
       class="st0"
       d="m 1881.5,1202.9 c -5.5,-21.8 -14.5,-39.5 -26.6,-52.5 -10.8,-11.6 -24.2,-19.7 -40,-24.2 -9,-2.6 -18.7,-4 -29.4,-4.3 4.7,-16.9 4.6,-33.9 4.6,-36.2 l -0.2,-11.4 -11.5,-0.2 c -2,0 -12.4,0 -24.5,2 -17.6,3 -30.7,8.7 -39,17 -0.2,0.2 -0.4,0.4 -0.5,0.5 -0.7,-0.1 -1.4,-0.1 -2.1,-0.1 -10.9,0 -19.7,8.8 -19.7,19.7 v 13.6 c -1,-0.2 -2.1,-0.3 -3.2,-0.5 -23.2,-3.6 -52.1,-8 -79.8,-0.2 -15.8,4.5 -29.2,12.6 -40,24.2 -12.1,13 -21.1,30.7 -26.6,52.5 -17.3,68 15.1,141.8 51.1,188.2 26.3,33.8 54.6,54.1 75.7,54.1 19.7,0 28,-3.7 34.1,-6.3 3.3,-1.5 4.8,-2.1 8.3,-2.1 3.5,0 4.9,0.7 8.3,2.1 6.1,2.7 14.4,6.3 34.1,6.3 21.1,0 49.4,-20.2 75.7,-54.1 20,-25.7 36.2,-56.4 45.7,-86.3 11.6,-36.3 13.4,-70.6 5.5,-101.8 z"
       style="fill:#2c2f54"
       id="path693"
       inkscape:connector-curvature="0" />
    <g
       id="g727">
      <g
         id="g705">
        <path
           class="st22"
           d="m 1870.1,1205.8 c -26.4,-103.9 -122.6,-65 -157.8,-65 -35.2,0 -131.4,-39 -157.8,65 -26.4,103.9 72.1,227.6 115.5,227.6 29.3,0 28,-8.5 42.4,-8.5 14.4,0 13,8.5 42.4,8.5 43.1,0 141.7,-123.6 115.3,-227.6 z"
           style="fill:#9bc133"
           id="path695"
           inkscape:connector-curvature="0" />
        <g
           id="g701">
          <path
             class="st23"
             d="m 1567.5,1218.9 c 26.4,-103.9 122.6,-65 157.8,-65 23.6,0 74.6,-17.5 113.6,2.2 -1.6,-3 -3.4,-5.8 -5.2,-8.5 -39.7,-26.8 -96.2,-6.8 -121.5,-6.8 -35.2,0 -131.4,-39 -157.8,65 -17.2,67.7 18.6,143.8 57.7,188.7 2.2,1.9 4.4,3.6 6.6,5.3 -36.4,-45.6 -67.5,-117 -51.2,-180.9 z"
             style="fill:#d8ed8a"
             id="path697"
             inkscape:connector-curvature="0" />
          <path
             class="st24"
             d="m 1692.4,1405.1 c 14.4,0 13,8.5 42.4,8.5 43.3,0 141.9,-123.7 115.5,-227.6 -3,-11.7 -6.8,-21.5 -11.3,-29.8 -39,-19.7 -90,-2.2 -113.6,-2.2 -35.2,0 -131.4,-39 -157.8,65 -16.3,63.9 14.8,135.4 51.2,180.8 11.7,8.8 22.6,13.8 31.4,13.8 29.1,0 27.8,-8.5 42.2,-8.5 z"
             style="fill:#abd450"
             id="path699"
             inkscape:connector-curvature="0" />
        </g>
        <path
           class="st0"
           d="m 1754.6,1436.1 c -17.8,0 -24.8,-3.1 -30.5,-5.6 -3.7,-1.6 -6.6,-2.9 -11.9,-2.9 -5.3,0 -8.2,1.3 -11.9,2.9 -5.6,2.5 -12.6,5.6 -30.5,5.6 -18.1,0 -44.4,-19.4 -68.6,-50.6 -34.7,-44.7 -66,-115.6 -49.5,-180.4 5.2,-20.3 13.4,-36.7 24.5,-48.5 9.6,-10.3 21.7,-17.6 35.8,-21.6 25.7,-7.3 53.6,-3 75.9,0.4 9.7,1.5 18,2.8 24.3,2.8 6.2,0 14.6,-1.3 24.3,-2.8 22.4,-3.4 50.2,-7.7 75.9,-0.4 14.2,4 26.2,11.3 35.8,21.6 11.1,11.9 19.3,28.2 24.5,48.5 7.5,29.5 5.7,62.2 -5.3,96.9 -9.2,29 -24.9,58.6 -44.2,83.5 -24.3,31.3 -50.5,50.6 -68.6,50.6 z m -42.4,-13.8 c 6.5,0 10.2,1.6 14.1,3.3 5.4,2.4 11.6,5.1 28.3,5.1 16.2,0 41.4,-19 64.3,-48.5 51.8,-66.6 59,-134.5 48.5,-175.8 -21,-82.5 -86.7,-72.4 -130.1,-65.7 -9.9,1.5 -18.4,2.8 -25.1,2.8 -6.7,0 -15.2,-1.3 -25.1,-2.8 -43.5,-6.7 -109.2,-16.8 -130.1,65.7 -10.5,41.3 -3.3,109.2 48.5,175.8 22.9,29.4 48.1,48.5 64.3,48.5 16.7,0 22.8,-2.7 28.3,-5.1 3.9,-1.7 7.6,-3.3 14.1,-3.3 z"
           style="fill:#2c2f54"
           id="path703"
           inkscape:connector-curvature="0" />
      </g>
      <g
         id="g713">
        <path
           class="st22"
           d="m 1762.7,1141.1 c -16.1,16.1 -31.9,14.1 -42.8,3.2 -10.9,-10.9 -12.9,-26.7 3.2,-42.8 16.1,-16.1 55.1,-15.6 55.1,-15.6 0,0 0.6,39.1 -15.5,55.2 z"
           style="fill:#9bc133"
           id="path707"
           inkscape:connector-curvature="0" />
        <path
           class="st24"
           d="m 1755,1130.5 c -12.4,12.4 -24.5,10.9 -32.9,2.5 -8.4,-8.4 -9.9,-20.5 2.5,-32.9 12.4,-12.4 42.4,-12 42.4,-12 0,0 0.4,30 -12,42.4 z"
           style="fill:#abd450"
           id="path709"
           inkscape:connector-curvature="0" />
        <path
           class="st0"
           d="m 1738.7,1155.6 c -7.4,0 -14.5,-3.1 -20.7,-9.4 -13.6,-13.6 -12.4,-31 3.2,-46.6 16.7,-16.7 55.5,-16.4 57.1,-16.4 h 2.6 v 2.6 c 0,1.6 0.4,40.4 -16.4,57.1 -8.3,8.5 -17.2,12.7 -25.8,12.7 z m 36.8,-66.9 c -9,0.2 -37.7,2 -50.5,14.7 -13.4,13.4 -14.6,27.6 -3.2,38.9 11.4,11.4 25.5,10.2 38.9,-3.2 12.8,-12.7 14.6,-41.5 14.8,-50.4 z"
           style="fill:#2c2f54"
           id="path711"
           inkscape:connector-curvature="0" />
      </g>
      <g
         id="g721">
        <g
           id="g719">
          <path
             class="st25"
             d="m 1720.2,1113.3 v 60.6 c -3,0.3 -5.7,0.5 -7.9,0.5 -2.2,0 -5,-0.2 -7.9,-0.5 v -60.6 c 0,-4.4 3.5,-7.9 7.9,-7.9 4.3,0 7.9,3.5 7.9,7.9 z"
             style="fill:#eae4cc"
             id="path715"
             inkscape:connector-curvature="0" />
          <path
             class="st0"
             d="m 1712.2,1177.1 c -2.4,0 -5.3,-0.2 -8.2,-0.5 l -2.4,-0.3 v -63 c 0,-5.9 4.8,-10.6 10.6,-10.6 5.9,0 10.7,4.8 10.7,10.6 v 63 l -2.4,0.3 c -3,0.4 -5.8,0.5 -8.3,0.5 z m -5.2,-5.6 c 1.9,0.2 3.6,0.2 5.2,0.2 1.6,0 3.4,-0.1 5.2,-0.2 v -58.2 c 0,-2.9 -2.3,-5.2 -5.2,-5.2 -2.9,0 -5.2,2.3 -5.2,5.2 z"
             style="fill:#2c2f54"
             id="path717"
             inkscape:connector-curvature="0" />
        </g>
      </g>
      <g
         id="g725">
        <path
           class="st0"
           d="m 1712.2,1177.1 c -2.4,0 -5.3,-0.2 -8.2,-0.5 -7.2,-0.8 -31.2,-4.6 -38.8,-19.1 -0.7,-1.3 -0.2,-3 1.1,-3.7 1.3,-0.7 3,-0.2 3.7,1.1 5.1,9.6 21.2,14.7 34.6,16.2 2.7,0.3 5.4,0.5 7.6,0.5 2.2,0 4.9,-0.2 7.6,-0.5 13.4,-1.5 29.5,-6.6 34.6,-16.2 0.7,-1.3 2.3,-1.8 3.7,-1.1 1.3,0.7 1.8,2.3 1.1,3.7 -7.7,14.4 -31.6,18.3 -38.8,19.1 -2.9,0.4 -5.7,0.5 -8.2,0.5 z"
           style="fill:#2c2f54"
           id="path723"
           inkscape:connector-curvature="0" />
      </g>
    </g>
  </g>
</svg>
