<?xml version="1.0" encoding="UTF-8" standalone="no"?>
<svg
   xmlns:dc="http://purl.org/dc/elements/1.1/"
   xmlns:cc="http://creativecommons.org/ns#"
   xmlns:rdf="http://www.w3.org/1999/02/22-rdf-syntax-ns#"
   xmlns:svg="http://www.w3.org/2000/svg"
   xmlns="http://www.w3.org/2000/svg"
   xmlns:sodipodi="http://sodipodi.sourceforge.net/DTD/sodipodi-0.dtd"
   xmlns:inkscape="http://www.inkscape.org/namespaces/inkscape"
   id="master-artboard"
   viewBox="0 0 167.73077 217.72543"
   version="1.1"
   x="0px"
   y="0px"
   width="167.73077"
   height="217.72543"
   sodipodi:docname="checklist.svg"
   inkscape:version="0.92.4 (5da689c313, 2019-01-14)">
  <metadata
     id="metadata686">
    <rdf:RDF>
      <cc:Work
         rdf:about="">
        <dc:format>image/svg+xml</dc:format>
        <dc:type
           rdf:resource="http://purl.org/dc/dcmitype/StillImage" />
        <dc:title></dc:title>
      </cc:Work>
    </rdf:RDF>
  </metadata>
  <defs
     id="defs684" />
  <sodipodi:namedview
     pagecolor="#ffffff"
     bordercolor="#666666"
     borderopacity="1"
     objecttolerance="10"
     gridtolerance="10"
     guidetolerance="10"
     inkscape:pageopacity="0"
     inkscape:pageshadow="2"
     inkscape:window-width="1920"
     inkscape:window-height="1001"
     id="namedview682"
     showgrid="false"
     inkscape:zoom="0.8244898"
     inkscape:cx="407.33868"
     inkscape:cy="278.29487"
     inkscape:window-x="-9"
     inkscape:window-y="-9"
     inkscape:window-maximized="1"
     inkscape:current-layer="g679" />
  <g
     transform="matrix(0.52350427,0,0,0.52350427,-187.36218,-550.56944)"
     id="g679">
    <path
       class="st0"
       d="m 655.2,1067.7 h -53.9 v -3.6 c 0,-6.9 -5.6,-12.4 -12.4,-12.4 H 447.4 c -6.9,0 -12.4,5.6 -12.4,12.4 v 3.6 h -54 c -12.7,0 -23.1,10.4 -23.1,23.1 v 353.7 c 0,12.7 10.4,23.1 23.1,23.1 h 274.2 c 12.7,0 23.1,-10.4 23.1,-23.1 v -353.7 c 0,-12.7 -10.3,-23.1 -23.1,-23.1 z"
       style="fill:#2c2f54"
       id="path559"
       inkscape:connector-curvature="0" />
    <g
       id="g641">
      <g
         id="g567">
        <path
           class="st18"
           d="M 655.2,1455.2 H 381 c -5.9,0 -10.7,-4.8 -10.7,-10.7 v -353.7 c 0,-5.9 4.8,-10.7 10.7,-10.7 h 274.2 c 5.9,0 10.7,4.8 10.7,10.7 v 353.7 c 0,5.9 -4.8,10.7 -10.7,10.7 z"
           style="fill:#e9f9c2"
           id="path561"
           inkscape:connector-curvature="0" />
        <path
           class="st19"
           d="m 655.5,1455.2 h -268 c -5.8,0 -10.4,-4.7 -10.4,-10.4 v -345.5 c 0,-5.8 4.7,-10.4 10.4,-10.4 h 267.9 c 5.8,0 10.4,4.7 10.4,10.4 v 345.5 c 0.1,5.7 -4.6,10.4 -10.3,10.4 z"
           style="fill:#c2e085"
           id="path563"
           inkscape:connector-curvature="0" />
        <path
           class="st0"
           d="M 655.2,1458.6 H 381 c -7.7,0 -14.1,-6.3 -14.1,-14.1 v -353.7 c 0,-7.7 6.3,-14.1 14.1,-14.1 h 274.2 c 7.7,0 14.1,6.3 14.1,14.1 v 353.7 c 0,7.8 -6.3,14.1 -14.1,14.1 z M 381,1083.6 c -4,0 -7.3,3.3 -7.3,7.3 v 353.7 c 0,4 3.3,7.3 7.3,7.3 h 274.2 c 4,0 7.3,-3.3 7.3,-7.3 v -353.7 c 0,-4 -3.3,-7.3 -7.3,-7.3 z"
           style="fill:#2c2f54"
           id="path565"
           inkscape:connector-curvature="0" />
      </g>
      <g
         id="g573">
        <path
           d="m 390.89999,1095.2 h 254.4 v 323.6 h -254.4 z"
           class="st16"
           style="fill:#ebf2f7"
           id="path569"
           inkscape:connector-curvature="0" />
        <path
           class="st0"
           d="M 645.3,1422.2 H 390.9 c -1.9,0 -3.4,-1.5 -3.4,-3.4 v -323.6 c 0,-1.9 1.5,-3.4 3.4,-3.4 h 254.4 c 1.9,0 3.4,1.5 3.4,3.4 v 323.6 c 0,1.9 -1.5,3.4 -3.4,3.4 z m -251,-6.8 H 641.9 V 1098.5 H 394.3 Z"
           style="fill:#2c2f54"
           id="path571"
           inkscape:connector-curvature="0" />
      </g>
      <g
         id="g581">
        <path
           class="st12"
           d="m 447.4,1064.2 c 0,11.2 0,19.8 0,31 h 141.5 c 0,-11.2 0,-19.8 0,-31 z"
           style="fill:#75a9d8"
           id="path575"
           inkscape:connector-curvature="0" />
        <path
           class="st14"
           d="m 447.4,1064.2 c 0,8 0,14.1 0,22.1 h 132.3 c 0,-8 0,-14.1 0,-22.1 z"
           style="fill:#9ec0e5"
           id="path577"
           inkscape:connector-curvature="0" />
        <path
           class="st0"
           d="M 588.8,1098.6 H 447.4 c -1.9,0 -3.4,-1.5 -3.4,-3.4 v -31 c 0,-1.9 1.5,-3.4 3.4,-3.4 h 141.5 c 1.9,0 3.4,1.5 3.4,3.4 v 31 c -0.1,1.9 -1.6,3.4 -3.5,3.4 z m -138,-6.8 h 134.7 v -24.2 H 450.8 Z"
           style="fill:#2c2f54"
           id="path579"
           inkscape:connector-curvature="0" />
      </g>
      <g
         id="g589">
        <path
           class="st20"
           d="m 458.4,1095.2 c 0,7.7 0,13.6 0,21.3 h 120.2 c 0,-7.7 0,-13.6 0,-21.3 z"
           style="fill:#5897c6"
           id="path583"
           inkscape:connector-curvature="0" />
        <path
           class="st21"
           d="m 458.4,1104.7 c 0,4.3 0,7.6 0,11.8 h 120.2 c 0,-4.3 0,-7.6 0,-11.8 z"
           style="fill:#75a6d3"
           id="path585"
           inkscape:connector-curvature="0" />
        <path
           class="st0"
           d="M 578.6,1119.9 H 458.4 c -1.9,0 -3.4,-1.5 -3.4,-3.4 v -21.3 c 0,-1.9 1.5,-3.4 3.4,-3.4 h 120.2 c 1.9,0 3.4,1.5 3.4,3.4 v 21.3 c 0,1.9 -1.5,3.4 -3.4,3.4 z m -116.8,-6.8 h 113.4 v -14.5 H 461.8 Z"
           style="fill:#2c2f54"
           id="path587"
           inkscape:connector-curvature="0" />
      </g>
      <g
         id="g639">
        <g
           id="g605">
          <g
             id="g599">
            <g
               id="g593">
              <path
                 class="st0"
                 d="m 443.5,1191.1 c -12,0 -21.8,-9.8 -21.8,-21.8 0,-12 9.8,-21.8 21.8,-21.8 12,0 21.8,9.8 21.8,21.8 0,12 -9.8,21.8 -21.8,21.8 z m 0,-36.8 c -8.3,0 -15,6.7 -15,15 0,8.3 6.7,15 15,15 8.3,0 15,-6.7 15,-15 0,-8.3 -6.7,-15 -15,-15 z"
                 style="fill:#2c2f54"
                 id="path591"
                 inkscape:connector-curvature="0" />
            </g>
            <g
               id="g597">
              <path
                 class="st9"
                 d="m 440.1,1181.4 c -0.9,0 -1.7,-0.3 -2.4,-1 l -8.7,-8.7 c -1.3,-1.3 -1.3,-3.5 0,-4.8 1.3,-1.3 3.5,-1.3 4.8,0 l 6.3,6.3 24.7,-24.7 c 1.3,-1.3 3.5,-1.3 4.8,0 1.3,1.3 1.3,3.5 0,4.8 l -27.1,27.1 c -0.7,0.7 -1.5,1 -2.4,1 z"
                 style="fill:#f27070"
                 id="path595"
                 inkscape:connector-curvature="0" />
            </g>
          </g>
          <g
             id="g603">
            <path
               class="st0"
               d="m 611.1,1172.7 h -126 c -1.9,0 -3.4,-1.5 -3.4,-3.4 0,-1.9 1.5,-3.4 3.4,-3.4 h 126 c 1.9,0 3.4,1.5 3.4,3.4 0,1.9 -1.5,3.4 -3.4,3.4 z"
               style="fill:#2c2f54"
               id="path601"
               inkscape:connector-curvature="0" />
          </g>
        </g>
        <g
           id="g621">
          <g
             id="g615">
            <g
               id="g609">
              <path
                 class="st0"
                 d="m 443.5,1278.8 c -12,0 -21.8,-9.8 -21.8,-21.8 0,-12 9.8,-21.8 21.8,-21.8 12,0 21.8,9.8 21.8,21.8 0,12 -9.8,21.8 -21.8,21.8 z m 0,-36.8 c -8.3,0 -15,6.7 -15,15 0,8.3 6.7,15 15,15 8.3,0 15,-6.7 15,-15 0,-8.3 -6.7,-15 -15,-15 z"
                 style="fill:#2c2f54"
                 id="path607"
                 inkscape:connector-curvature="0" />
            </g>
            <g
               id="g613">
              <path
                 class="st9"
                 d="m 440.1,1269.1 c -0.9,0 -1.7,-0.3 -2.4,-1 l -8.7,-8.7 c -1.3,-1.3 -1.3,-3.5 0,-4.8 1.3,-1.3 3.5,-1.3 4.8,0 l 6.3,6.3 24.7,-24.7 c 1.3,-1.3 3.5,-1.3 4.8,0 1.3,1.3 1.3,3.5 0,4.8 l -27.1,27.1 c -0.7,0.7 -1.5,1 -2.4,1 z"
                 style="fill:#f27070"
                 id="path611"
                 inkscape:connector-curvature="0" />
            </g>
          </g>
          <g
             id="g619">
            <path
               class="st0"
               d="m 611.1,1260.4 h -126 c -1.9,0 -3.4,-1.5 -3.4,-3.4 0,-1.9 1.5,-3.4 3.4,-3.4 h 126 c 1.9,0 3.4,1.5 3.4,3.4 0,1.9 -1.5,3.4 -3.4,3.4 z"
               style="fill:#2c2f54"
               id="path617"
               inkscape:connector-curvature="0" />
          </g>
        </g>
        <g
           id="g637">
          <g
             id="g631">
            <g
               id="g625">
              <path
                 class="st0"
                 d="m 443.5,1366.5 c -12,0 -21.8,-9.8 -21.8,-21.8 0,-12 9.8,-21.8 21.8,-21.8 12,0 21.8,9.8 21.8,21.8 0,12 -9.8,21.8 -21.8,21.8 z m 0,-36.8 c -8.3,0 -15,6.7 -15,15 0,8.3 6.7,15 15,15 8.3,0 15,-6.7 15,-15 0,-8.3 -6.7,-15 -15,-15 z"
                 style="fill:#2c2f54"
                 id="path623"
                 inkscape:connector-curvature="0" />
            </g>
            <g
               id="g629">
              <path
                 class="st9"
                 d="m 440.1,1356.8 c -0.9,0 -1.7,-0.3 -2.4,-1 l -8.7,-8.7 c -1.3,-1.3 -1.3,-3.5 0,-4.8 1.3,-1.3 3.5,-1.3 4.8,0 l 6.3,6.3 24.7,-24.7 c 1.3,-1.3 3.5,-1.3 4.8,0 1.3,1.3 1.3,3.5 0,4.8 l -27.1,27.1 c -0.7,0.7 -1.5,1 -2.4,1 z"
                 style="fill:#f27070"
                 id="path627"
                 inkscape:connector-curvature="0" />
            </g>
          </g>
          <g
             id="g635">
            <path
               class="st0"
               d="m 611.1,1348.1 h -126 c -1.9,0 -3.4,-1.5 -3.4,-3.4 0,-1.9 1.5,-3.4 3.4,-3.4 h 126 c 1.9,0 3.4,1.5 3.4,3.4 0,1.9 -1.5,3.4 -3.4,3.4 z"
               style="fill:#2c2f54"
               id="path633"
               inkscape:connector-curvature="0" />
          </g>
        </g>
      </g>
    </g>
  </g>
</svg>
