<?xml version="1.0" encoding="UTF-8" standalone="no"?>
<svg
   xmlns:dc="http://purl.org/dc/elements/1.1/"
   xmlns:cc="http://creativecommons.org/ns#"
   xmlns:rdf="http://www.w3.org/1999/02/22-rdf-syntax-ns#"
   xmlns:svg="http://www.w3.org/2000/svg"
   xmlns="http://www.w3.org/2000/svg"
   xmlns:sodipodi="http://sodipodi.sourceforge.net/DTD/sodipodi-0.dtd"
   xmlns:inkscape="http://www.inkscape.org/namespaces/inkscape"
   id="master-artboard"
   viewBox="0 0 393.20334 320.0855"
   version="1.1"
   x="0px"
   y="0px"
   width="393.20334"
   height="320.08548"
   sodipodi:docname="equipment.svg"
   inkscape:version="0.92.4 (5da689c313, 2019-01-14)">
  <metadata
     id="metadata1348">
    <rdf:RDF>
      <cc:Work
         rdf:about="">
        <dc:format>image/svg+xml</dc:format>
        <dc:type
           rdf:resource="http://purl.org/dc/dcmitype/StillImage" />
        <dc:title></dc:title>
      </cc:Work>
    </rdf:RDF>
  </metadata>
  <defs
     id="defs1346" />
  <sodipodi:namedview
     pagecolor="#ffffff"
     bordercolor="#666666"
     borderopacity="1"
     objecttolerance="10"
     gridtolerance="10"
     guidetolerance="10"
     inkscape:pageopacity="0"
     inkscape:pageshadow="2"
     inkscape:window-width="1920"
     inkscape:window-height="1001"
     id="namedview1344"
     showgrid="false"
     inkscape:zoom="0.68113143"
     inkscape:cx="347.36954"
     inkscape:cy="327.99987"
     inkscape:window-x="-9"
     inkscape:window-y="-9"
     inkscape:window-maximized="1"
     inkscape:current-layer="g1219" />
  <g
     transform="matrix(0.52350427,0,0,0.52350427,-436.39316,-516.24694)"
     id="g1341">
    <path
       class="st0"
       d="m 1560.0266,1214.0075 v -86.9023 c 0,-43.8758 -16.8037,-79.542 -37.475,-79.542 h -31.0735 c -2.0004,0 -3.8675,0.2826 -5.7346,0.8488 -3.7341,-35.6666 -18.6707,-62.27498 -36.5413,-62.27498 h -31.0735 c -20.6713,0 -37.475,35.66658 -37.475,79.54218 v 146.6297 h -343.0088 v -146.6297 c 0,-43.8756 -16.8037,-79.54218 -37.4749,-79.54218 h -31.07351 c -17.8706,0 -32.94058,26.89178 -36.54138,62.27498 -1.86707,-0.5662 -3.86751,-0.8488 -5.73459,-0.8488 h -31.07351 c -20.67121,0 -37.47491,35.6662 -37.47491,79.542 v 86.9023 c -14.6699,12.4551 -24.6721,42.7432 -24.6721,77.8439 0,35.1003 10.13556,65.3887 24.6721,77.8439 v 86.902 c 0,43.8757 16.8037,79.5421 37.47491,79.5421 h 31.07351 c 2.00044,0 3.86752,-0.2829 5.73459,-0.8492 3.73416,35.6668 18.67078,62.2754 36.54138,62.2754 H 1000.17 c 20.6712,0 37.4749,-35.6668 37.4749,-79.5426 v -146.6293 h 343.0088 v 146.6293 c 0,43.8758 16.8037,79.5426 37.475,79.5426 h 31.0735 c 17.8706,0 32.9405,-26.8918 36.5413,-62.2754 1.8671,0.5663 3.8676,0.8492 5.7346,0.8492 h 31.0735 c 20.6713,0 37.475,-35.6664 37.475,-79.5421 v -86.902 c 14.6698,-12.4552 24.672,-42.7436 24.672,-77.8439 0,-34.8177 -10.0022,-65.1061 -24.672,-77.8439 z"
       style="fill:#2c2f54;stroke-width:1.94295657"
       id="path1143"
       inkscape:connector-curvature="0" />
    <g
       id="g1219"
       transform="matrix(1,0,0,1.389508,0,-462.57966)">
      <g
         id="g1155"
         transform="matrix(1.3336269,0,0,2.0371867,-278.11135,-1303.4129)">
        <path
           class="st12"
           d="m 935.2,1355.5 h 23.3 c 8.8,0 15.9,-7.1 15.9,-15.9 v -159.9 c 0,-8.8 -7.1,-15.9 -15.9,-15.9 h -23.3 c -8.8,0 -15.9,7.1 -15.9,15.9 v 159.9 c 0,8.8 7.1,15.9 15.9,15.9 z"
           style="fill:#75a9d8"
           id="path1145"
           inkscape:connector-curvature="0" />
        <path
           class="st13"
           d="m 932.6,1333.9 h 17.1 c 7.4,0 13.3,-6 13.3,-13.3 v -143.3 c 0,-7.4 -6,-13.3 -13.3,-13.3 h -17.1 c -7.4,0 -13.3,6 -13.3,13.3 v 143.3 c 0,7.3 6,13.3 13.3,13.3 z"
           style="fill:#cde4f9"
           id="path1147"
           inkscape:connector-curvature="0" />
        <g
           id="g1151">
          <path
             class="st14"
             d="m 949.8,1333.9 c 7.4,0 13.3,-6 13.3,-13.3 v -143.3 c 0,-1.8 -0.4,-3.5 -1,-5.1 -1.6,-0.7 -3.3,-1 -5.1,-1 h -17.1 c -7.4,0 -13.3,6 -13.3,13.3 v 143.3 c 0,1.8 0.4,3.5 1,5.1 1.6,0.7 3.3,1 5.1,1 z"
             style="fill:#9ec0e5"
             id="path1149"
             inkscape:connector-curvature="0" />
        </g>
        <path
           class="st0"
           d="m 958.5,1358.7 h -23.3 c -10.5,0 -19,-8.5 -19,-19 v -159.9 c 0,-10.5 8.5,-19 19,-19 h 23.3 c 10.5,0 19,8.5 19,19 v 159.9 c 0,10.4 -8.5,19 -19,19 z M 935.2,1167 c -7,0 -12.7,5.7 -12.7,12.7 v 159.9 c 0,7 5.7,12.7 12.7,12.7 h 23.3 c 7,0 12.7,-5.7 12.7,-12.7 v -159.9 c 0,-7 -5.7,-12.7 -12.7,-12.7 z"
           style="fill:#2c2f54"
           id="path1153"
           inkscape:connector-curvature="0" />
      </g>
      <g
         id="g1167"
         transform="matrix(1.3336269,0,0,2.0371867,-278.11135,-1303.4129)">
        <path
           class="st12"
           d="m 880.1,1333.8 h 23.3 c 8.8,0 15.9,-7.1 15.9,-15.9 v -116.5 c 0,-8.8 -7.1,-15.9 -15.9,-15.9 h -23.3 c -8.8,0 -15.9,7.1 -15.9,15.9 v 116.5 c 0,8.8 7.1,15.9 15.9,15.9 z"
           style="fill:#75a9d8"
           id="path1157"
           inkscape:connector-curvature="0" />
        <path
           class="st13"
           d="m 877.6,1311.3 h 19.1 c 7.4,0 13.3,-6 13.3,-13.3 v -99 c 0,-7.4 -6,-13.3 -13.3,-13.3 h -19.1 c -7.4,0 -13.3,6 -13.3,13.3 v 99 c -0.1,7.3 5.9,13.3 13.3,13.3 z"
           style="fill:#cde4f9"
           id="path1159"
           inkscape:connector-curvature="0" />
        <g
           id="g1163">
          <path
             class="st14"
             d="m 896.7,1311.3 c 7.4,0 13.3,-6 13.3,-13.3 v -99 c 0,-1.8 -0.4,-3.5 -1,-5.1 -1.6,-0.6 -3.3,-1 -5.1,-1 h -19.1 c -7.4,0 -13.3,6 -13.3,13.3 v 99 c 0,1.8 0.4,3.5 1,5.1 1.6,0.6 3.3,1 5.1,1 z"
             style="fill:#9ec0e5"
             id="path1161"
             inkscape:connector-curvature="0" />
        </g>
        <path
           class="st0"
           d="m 903.4,1337 h -23.3 c -10.5,0 -19,-8.5 -19,-19 v -116.5 c 0,-10.5 8.5,-19 19,-19 h 23.3 c 10.5,0 19,8.5 19,19 V 1318 c 0.1,10.4 -8.5,19 -19,19 z m -23.3,-148.3 c -7,0 -12.7,5.7 -12.7,12.7 v 116.5 c 0,7 5.7,12.7 12.7,12.7 h 23.3 c 7,0 12.7,-5.7 12.7,-12.7 v -116.5 c 0,-7 -5.7,-12.7 -12.7,-12.7 z"
           style="fill:#2c2f54"
           id="path1165"
           inkscape:connector-curvature="0" />
      </g>
      <g
         id="g1175"
         transform="matrix(1.3336269,0,0,2.0371867,-278.11135,-1303.4129)">
        <path
           class="st15"
           d="m 845.7,1259.7 c 0,9.6 7.8,17.5 17.5,17.5 v -34.9 c -9.7,-0.1 -17.5,7.7 -17.5,17.4 z"
           style="fill:#bed7e5"
           id="path1169"
           inkscape:connector-curvature="0" />
        <path
           class="st16"
           d="m 848.5,1254.1 c 0,6.6 5.3,11.9 11.9,11.9 v -23.8 c -6.6,0 -11.9,5.3 -11.9,11.9 z"
           style="fill:#ebf2f7"
           id="path1171"
           inkscape:connector-curvature="0" />
        <path
           class="st0"
           d="m 842.5,1259.7 c 0,-11.4 9.3,-20.6 20.6,-20.6 1.7,0 3.2,1.4 3.2,3.2 v 34.9 c 0,1.7 -1.4,3.2 -3.2,3.2 -11.3,-0.1 -20.6,-9.3 -20.6,-20.7 z m 6.4,0 c 0,6.8 4.8,12.5 11.1,14 v -27.9 c -6.4,1.4 -11.1,7.1 -11.1,13.9 z"
           style="fill:#2c2f54"
           id="path1173"
           inkscape:connector-curvature="0" />
      </g>
      <g
         id="g1187"
         transform="matrix(1.3336269,0,0,2.0371867,-278.11135,-1303.4129)">
        <path
           class="st12"
           d="m 1271.9,1355.5 h 23.3 c 8.8,0 15.9,-7.1 15.9,-15.9 v -159.9 c 0,-8.8 -7.1,-15.9 -15.9,-15.9 h -23.3 c -8.8,0 -15.9,7.1 -15.9,15.9 v 159.9 c 0,8.8 7.1,15.9 15.9,15.9 z"
           style="fill:#75a9d8"
           id="path1177"
           inkscape:connector-curvature="0" />
        <path
           class="st13"
           d="m 1269.3,1333.9 h 17.1 c 7.4,0 13.3,-6 13.3,-13.3 v -143.3 c 0,-7.4 -6,-13.3 -13.3,-13.3 h -17.1 c -7.4,0 -13.3,6 -13.3,13.3 v 143.3 c 0,7.3 6,13.3 13.3,13.3 z"
           style="fill:#cde4f9"
           id="path1179"
           inkscape:connector-curvature="0" />
        <g
           id="g1183">
          <path
             class="st14"
             d="m 1286.5,1333.9 c 7.4,0 13.3,-6 13.3,-13.3 v -143.3 c 0,-1.8 -0.4,-3.5 -1,-5.1 -1.6,-0.7 -3.3,-1 -5.1,-1 h -17.1 c -7.4,0 -13.3,6 -13.3,13.3 v 143.3 c 0,1.8 0.4,3.5 1,5.1 1.6,0.7 3.3,1 5.1,1 z"
             style="fill:#9ec0e5"
             id="path1181"
             inkscape:connector-curvature="0" />
        </g>
        <path
           class="st0"
           d="m 1295.2,1358.7 h -23.3 c -10.5,0 -19,-8.5 -19,-19 v -159.9 c 0,-10.5 8.5,-19 19,-19 h 23.3 c 10.5,0 19,8.5 19,19 v 159.9 c 0,10.4 -8.5,19 -19,19 z M 1271.9,1167 c -7,0 -12.7,5.7 -12.7,12.7 v 159.9 c 0,7 5.7,12.7 12.7,12.7 h 23.3 c 7,0 12.7,-5.7 12.7,-12.7 v -159.9 c 0,-7 -5.7,-12.7 -12.7,-12.7 z"
           style="fill:#2c2f54"
           id="path1185"
           inkscape:connector-curvature="0" />
      </g>
      <g
         id="g1199"
         transform="matrix(1.3336269,0,0,2.0371867,-278.11135,-1303.4129)">
        <path
           class="st12"
           d="m 1326.9,1333.8 h 23.3 c 8.8,0 15.9,-7.1 15.9,-15.9 v -116.5 c 0,-8.8 -7.1,-15.9 -15.9,-15.9 h -23.3 c -8.8,0 -15.9,7.1 -15.9,15.9 v 116.5 c 0,8.8 7.2,15.9 15.9,15.9 z"
           style="fill:#75a9d8"
           id="path1189"
           inkscape:connector-curvature="0" />
        <path
           class="st13"
           d="m 1324.4,1311.3 h 19.1 c 7.4,0 13.3,-6 13.3,-13.3 v -99 c 0,-7.4 -6,-13.3 -13.3,-13.3 h -19.1 c -7.4,0 -13.3,6 -13.3,13.3 v 99 c -0.1,7.3 5.9,13.3 13.3,13.3 z"
           style="fill:#cde4f9"
           id="path1191"
           inkscape:connector-curvature="0" />
        <g
           id="g1195">
          <path
             class="st14"
             d="m 1343.5,1311.3 c 7.4,0 13.3,-6 13.3,-13.3 v -99 c 0,-1.8 -0.4,-3.5 -1,-5.1 -1.6,-0.6 -3.3,-1 -5.1,-1 h -19.1 c -7.4,0 -13.3,6 -13.3,13.3 v 99 c 0,1.8 0.4,3.5 1,5.1 1.6,0.6 3.3,1 5.1,1 z"
             style="fill:#9ec0e5"
             id="path1193"
             inkscape:connector-curvature="0" />
        </g>
        <path
           class="st0"
           d="m 1350.2,1337 h -23.3 c -10.5,0 -19,-8.5 -19,-19 v -116.5 c 0,-10.5 8.5,-19 19,-19 h 23.3 c 10.5,0 19,8.5 19,19 V 1318 c 0.1,10.4 -8.5,19 -19,19 z m -23.3,-148.3 c -7,0 -12.7,5.7 -12.7,12.7 v 116.5 c 0,7 5.7,12.7 12.7,12.7 h 23.3 c 7,0 12.7,-5.7 12.7,-12.7 v -116.5 c 0,-7 -5.7,-12.7 -12.7,-12.7 z"
           style="fill:#2c2f54"
           id="path1197"
           inkscape:connector-curvature="0" />
      </g>
      <g
         id="g1207"
         transform="matrix(1.3336269,0,0,2.0371867,-278.11135,-1303.4129)">
        <path
           class="st15"
           d="m 1384.6,1259.7 c 0,9.6 -7.8,17.5 -17.5,17.5 v -34.9 c 9.7,-0.1 17.5,7.7 17.5,17.4 z"
           style="fill:#bed7e5"
           id="path1201"
           inkscape:connector-curvature="0" />
        <path
           class="st16"
           d="m 1381.9,1254.1 c 0,6.6 -5.3,11.9 -11.9,11.9 v -23.8 c 6.5,0 11.9,5.3 11.9,11.9 z"
           style="fill:#ebf2f7"
           id="path1203"
           inkscape:connector-curvature="0" />
        <path
           class="st0"
           d="m 1367.2,1280.3 c -1.7,0 -3.2,-1.4 -3.2,-3.2 v -34.9 c 0,-1.7 1.4,-3.2 3.2,-3.2 11.4,0 20.6,9.3 20.6,20.6 0,11.5 -9.3,20.7 -20.6,20.7 z m 3.1,-34.6 v 27.9 c 6.4,-1.4 11.1,-7.2 11.1,-14 0.1,-6.7 -4.7,-12.4 -11.1,-13.9 z"
           style="fill:#2c2f54"
           id="path1205"
           inkscape:connector-curvature="0" />
      </g>
      <g
         id="g1217"
         transform="matrix(1.3336269,0,0,2.0371867,-278.11135,-1303.4129)">
        <path
           d="M 974.40002,1243.8 H 1256 v 31.8 H 974.40002 Z"
           class="st15"
           style="fill:#bed7e5"
           id="path1209"
           inkscape:connector-curvature="0" />
        <path
           d="M 974.40002,1243.8 H 1256 v 20.4 H 974.40002 Z"
           class="st16"
           style="fill:#ebf2f7"
           id="path1211"
           inkscape:connector-curvature="0" />
        <path
           d="M 974.40002,1243.8 H 1256 v 9.6 H 974.40002 Z"
           class="st17"
           style="fill:#ffffff"
           id="path1213"
           inkscape:connector-curvature="0" />
        <path
           class="st0"
           d="M 1256,1278.7 H 974.4 c -1.7,0 -3.2,-1.4 -3.2,-3.2 v -31.8 c 0,-1.7 1.4,-3.2 3.2,-3.2 H 1256 c 1.7,0 3.2,1.4 3.2,3.2 v 31.8 c 0,1.8 -1.5,3.2 -3.2,3.2 z m -278.5,-6.3 h 275.3 V 1247 H 977.5 Z"
           style="fill:#2c2f54"
           id="path1215"
           inkscape:connector-curvature="0" />
      </g>
    </g>
  </g>
</svg>
