<?xml version="1.0" encoding="UTF-8" standalone="no"?>
<svg
   xmlns:dc="http://purl.org/dc/elements/1.1/"
   xmlns:cc="http://creativecommons.org/ns#"
   xmlns:rdf="http://www.w3.org/1999/02/22-rdf-syntax-ns#"
   xmlns:svg="http://www.w3.org/2000/svg"
   xmlns="http://www.w3.org/2000/svg"
   xmlns:sodipodi="http://sodipodi.sourceforge.net/DTD/sodipodi-0.dtd"
   xmlns:inkscape="http://www.inkscape.org/namespaces/inkscape"
   id="master-artboard"
   viewBox="0 0 211.33916 183.62457"
   version="1.1"
   x="0px"
   y="0px"
   width="211.33916"
   height="183.62457"
   sodipodi:docname="heart.svg"
   inkscape:version="0.92.4 (5da689c313, 2019-01-14)">
  <metadata
     id="metadata699">
    <rdf:RDF>
      <cc:Work
         rdf:about="">
        <dc:format>image/svg+xml</dc:format>
        <dc:type
           rdf:resource="http://purl.org/dc/dcmitype/StillImage" />
        <dc:title></dc:title>
      </cc:Work>
    </rdf:RDF>
  </metadata>
  <defs
     id="defs697" />
  <sodipodi:namedview
     pagecolor="#ffffff"
     bordercolor="#666666"
     borderopacity="1"
     objecttolerance="10"
     gridtolerance="10"
     guidetolerance="10"
     inkscape:pageopacity="0"
     inkscape:pageshadow="2"
     inkscape:window-width="1920"
     inkscape:window-height="1001"
     id="namedview695"
     showgrid="false"
     inkscape:zoom="0.68113143"
     inkscape:cx="81.802141"
     inkscape:cy="62.176125"
     inkscape:window-x="-9"
     inkscape:window-y="-9"
     inkscape:window-maximized="1"
     inkscape:current-layer="g692" />
  <g
     transform="matrix(0.52350427,0,0,0.52350427,-790.6485,-257.68953)"
     id="g692">
    <path
       class="st0"
       d="m 1895.5,662.4 c 6.6,-18.6 9.8,-37.1 9.6,-55 -0.5,-44.6 -22.5,-82.8 -59.1,-102.1 -19.6,-10.4 -42.4,-14.7 -66,-12.5 -22.8,2.1 -45.6,10.1 -67.8,23.7 -22.2,-13.6 -45,-21.6 -67.8,-23.7 -23.6,-2.2 -46.4,2.1 -66,12.5 -36.5,19.3 -58.6,57.5 -59.1,102.1 -0.2,17 2.8,34.6 8.7,52.3 -10.1,1.9 -17.7,10.8 -17.7,21.4 0,12 9.7,21.7 21.7,21.7 h 16.3 c 4.1,6.8 8.7,13.5 13.6,20.1 31.9,42.9 79.9,82.4 142.6,117.5 0.4,0.3 0.9,0.6 1.3,0.9 1.9,1.1 4,1.7 6.2,1.7 0.1,0 0.1,0 0.2,0 2.2,0 4.4,-0.6 6.4,-1.7 0.5,-0.3 0.9,-0.6 1.3,-0.9 62.7,-35 110.7,-74.5 142.6,-117.5 4.2,-5.7 8.2,-11.5 11.8,-17.3 h 18 c 12,0 21.7,-9.7 21.7,-21.7 0.1,-11 -8,-20 -18.5,-21.5 z"
       style="fill:#2c2f54"
       id="path458"
       inkscape:connector-curvature="0" />
    <g
       id="g492">
      <g
         id="g472">
        <path
           class="st7"
           d="m 1712.2,531.1 c -158.7,-105.8 -310.9,126.8 -0.1,299.3 v 0.2 c 0,0 0.1,-0.1 0.1,-0.1 0,0 0.1,0.1 0.1,0.1 v -0.2 c 310.9,-172.5 158.6,-405 -0.1,-299.3 z"
           style="fill:#ef5050"
           id="path460"
           inkscape:connector-curvature="0" />
        <g
           id="g464">
          <path
             class="st8"
             d="m 1699.4,814 v 0.2 c 0,0 0.1,-0.1 0.1,-0.1 0,0 0.1,0.1 0.1,0.1 V 814 c 177,-98.2 203.8,-216 164.8,-279.6 -33.5,-34.9 -92.4,-43.2 -152.2,-3.3 -123.5,-82.3 -243.1,40.3 -143.5,180.1 28.8,34.6 71.3,69.8 130.7,102.8 z"
             style="fill:#ffcfcf"
             id="path462"
             inkscape:connector-curvature="0" />
        </g>
        <g
           id="g468">
          <path
             class="st9"
             d="m 1699.4,814.2 c 0,0 0.1,-0.1 0.1,-0.1 0,0 0.1,0.1 0.1,0.1 V 814 c 174.5,-96.9 203,-212.7 166.4,-276.9 -34.5,-26.6 -87.7,-29.7 -141.6,6.2 -123.5,-82.3 -243.1,40.3 -143.5,180.1 4.4,5.3 9.1,10.6 14.2,15.9 26.6,25.3 60.9,50.6 104.3,74.7 z"
             style="fill:#f27070"
             id="path466"
             inkscape:connector-curvature="0" />
        </g>
        <path
           class="st0"
           d="m 1712.4,833.9 c 0,0 -0.1,0 -0.1,0 -0.6,0 -1.2,-0.1 -1.8,-0.4 -0.3,-0.2 -0.5,-0.3 -0.7,-0.6 -62,-34.5 -109.2,-73.3 -140.5,-115.4 -27.1,-36.4 -41.2,-74.5 -40.8,-110 0.4,-41.3 20.7,-76.5 54.3,-94.2 18,-9.5 39.1,-13.5 60.9,-11.4 23,2.2 46.1,10.7 68.7,25.4 22.6,-14.7 45.7,-23.2 68.7,-25.4 21.8,-2.1 42.9,1.9 60.9,11.4 33.6,17.7 53.8,53 54.3,94.2 0.4,35.6 -13.7,73.6 -40.8,110 -31.3,42.1 -78.5,80.9 -140.5,115.4 -0.2,0.2 -0.4,0.4 -0.7,0.5 -0.8,0.4 -1.3,0.5 -1.9,0.5 z m -80,-326.1 c -16.7,0 -32.7,3.8 -46.7,11.2 -31.4,16.6 -50.4,49.7 -50.8,88.5 -0.3,34.1 13.3,70.8 39.5,106.1 30.6,41.2 76.9,79.2 137.7,113.2 60.8,-33.9 107.2,-72 137.7,-113.2 26.2,-35.2 39.9,-71.9 39.5,-106.1 -0.4,-38.8 -19.4,-71.9 -50.8,-88.5 -16.9,-8.9 -36.7,-12.6 -57.2,-10.7 -22.5,2.1 -45.2,10.7 -67.5,25.5 -1.1,0.7 -2.5,0.7 -3.6,0 -22.2,-14.8 -44.9,-23.4 -67.5,-25.5 -3.3,-0.3 -6.8,-0.5 -10.3,-0.5 z"
           style="fill:#2c2f54"
           id="path470"
           inkscape:connector-curvature="0" />
      </g>
      <g
         id="g490">
        <g
           id="g488">
          <path
             class="st10"
             d="m 1728.8,732.4 c -0.6,0 -1.3,-0.1 -1.9,-0.2 -3.4,-0.7 -6.1,-3.2 -7.1,-6.5 l -26.2,-87.5 -22.7,47.1 c -1.6,3.3 -4.9,5.3 -8.5,5.3 h -130.3 c -5.2,0 -9.4,-4.2 -9.4,-9.4 0,-5.2 4.2,-9.4 9.4,-9.4 h 124.4 l 30.6,-63.6 c 1.7,-3.5 5.3,-5.6 9.2,-5.3 3.9,0.3 7.1,3 8.3,6.7 l 28.2,94.2 22,-25.9 c 1.8,-2.1 4.4,-3.3 7.2,-3.3 h 130.3 c 5.2,0 9.4,4.2 9.4,9.4 0,5.2 -4.2,9.4 -9.4,9.4 h -126 L 1736,729 c -1.8,2.2 -4.4,3.4 -7.2,3.4 z"
             style="fill:#db1414"
             id="path474"
             inkscape:connector-curvature="0" />
          <g
             id="g484">
            <path
               class="st10"
               d="m 1729.7,693.1 -25.1,-83.6 c -0.9,-3.1 -3.4,-5.5 -6.5,-6.4 l 28.2,94 z"
               style="fill:#db1414"
               id="path476"
               inkscape:connector-curvature="0" />
            <path
               class="st10"
               d="m 1664.3,678.6 c -1.6,3.3 -4.9,5.3 -8.5,5.3 h -130.3 c -0.9,0 -1.7,-0.1 -2.5,-0.3 1.1,4 4.7,6.9 9.1,6.9 h 130.3 c 3.6,0 6.9,-2.1 8.5,-5.3 l 19.8,-41.2 -3.7,-12.5 z"
               style="fill:#db1414"
               id="path478"
               inkscape:connector-curvature="0" />
            <path
               class="st10"
               d="m 1894.8,674.8 c 0.2,0.8 0.3,1.6 0.3,2.5 0,5.2 -4.2,9.4 -9.4,9.4 h -126 l -30.4,35.8 c -1.8,2.1 -4.4,3.3 -7.2,3.3 -0.6,0 -1.3,-0.1 -1.9,-0.2 -0.2,0 -0.4,-0.1 -0.6,-0.2 l 0.1,0.2 c 1,3.3 3.7,5.8 7.1,6.5 0.6,0.1 1.3,0.2 1.9,0.2 2.7,0 5.4,-1.2 7.2,-3.3 l 30.4,-35.8 h 126 c 5.2,0 9.4,-4.2 9.4,-9.4 0.1,-4.3 -2.9,-7.9 -6.9,-9 z"
               style="fill:#db1414"
               id="path480"
               inkscape:connector-curvature="0" />
            <path
               class="st11"
               d="m 1722.3,725.8 c 2.7,0 5.4,-1.2 7.2,-3.3 l 30.4,-35.8 h 126 c 5.2,0 9.4,-4.2 9.4,-9.4 0,-0.9 -0.1,-1.7 -0.3,-2.5 -0.8,-0.2 -1.6,-0.3 -2.5,-0.3 H 1762 c -2.8,0 -5.4,1.2 -7.2,3.3 l -22,25.9 -3.2,-10.6 -3.4,4 -28.2,-94 c -0.6,-0.2 -1.1,-0.3 -1.7,-0.3 -3.9,-0.3 -7.5,1.8 -9.2,5.3 l -30.6,63.6 h -124.4 c -5.2,0 -9.4,4.2 -9.4,9.4 0,0.9 0.1,1.7 0.3,2.5 0.8,0.2 1.6,0.3 2.5,0.3 h 130.3 c 3.6,0 6.9,-2.1 8.5,-5.3 l 25.5,-53.1 3.8,12.6 26.2,87.3 c 0.2,0.1 0.4,0.1 0.6,0.2 0.6,0.1 1.2,0.2 1.9,0.2 z"
               style="fill:#ea3939"
               id="path482"
               inkscape:connector-curvature="0" />
          </g>
          <path
             class="st0"
             d="m 1728.8,735.6 c 0,0 0,0 0,0 -0.9,0 -1.7,-0.1 -2.6,-0.3 -4.6,-1 -8.2,-4.3 -9.6,-8.8 l -23.8,-79.4 -19,39.4 c -2.1,4.4 -6.6,7.2 -11.4,7.2 h -130.3 c -7,0 -12.7,-5.7 -12.7,-12.7 0,-7 5.7,-12.7 12.7,-12.7 h 122.4 l 29.7,-61.7 c 2.3,-4.8 7.2,-7.6 12.4,-7.1 5.2,0.4 9.7,4 11.2,9 l 26.5,88.4 18.1,-21.3 c 2.4,-2.8 5.9,-4.5 9.7,-4.5 h 130.3 c 7,0 12.7,5.7 12.7,12.7 0,7 -5.7,12.7 -12.7,12.7 h -124.5 l -29.4,34.6 c -2.4,2.9 -5.9,4.5 -9.7,4.5 z m -35.2,-100.8 c 0.1,0 0.2,0 0.3,0 1.4,0.1 2.5,1 2.9,2.3 l 26.2,87.5 c 0.6,2.1 2.4,3.8 4.6,4.2 2.2,0.5 4.5,-0.3 5.9,-2 l 30.4,-35.8 c 0.6,-0.7 1.5,-1.2 2.5,-1.2 h 126 c 3.4,0 6.1,-2.7 6.1,-6.1 0,-3.4 -2.7,-6.1 -6.1,-6.1 H 1762 c -1.8,0 -3.5,0.8 -4.7,2.2 l -22,25.9 c -0.8,0.9 -2,1.3 -3.2,1.1 -1.2,-0.2 -2.1,-1.1 -2.5,-2.3 l -28.2,-94.2 c -0.7,-2.4 -2.9,-4.1 -5.4,-4.3 -2.5,-0.2 -4.9,1.1 -6,3.4 l -30.6,63.6 c -0.5,1.1 -1.7,1.9 -3,1.9 H 1532 c -3.4,0 -6.1,2.7 -6.1,6.1 0,3.4 2.7,6.1 6.1,6.1 h 130.3 c 2.3,0 4.5,-1.4 5.5,-3.5 l 22.7,-47.1 c 0.7,-1 1.8,-1.7 3.1,-1.7 z"
             style="fill:#2c2f54"
             id="path486"
             inkscape:connector-curvature="0" />
        </g>
      </g>
    </g>
  </g>
</svg>
